# xmcd
#
# Track frame offsets:
#	183
#	16338
#	31520
#	53878
#	68470
#	88695
#	104338
#	128203
#	142323
#	166238
#	181465
#	196478
#	214330
#	229363
#	246740
#	261495
#	290168
#	308333
#
# Disc length: 4389 seconds
# Revision: 15
# Processed by: cddbd v1.5.2PL0 Copyright (c) Steve Scherf et al.
# Submitted via: dBpowerAMP V12.0
#
DISCID=11112312
DTITLE=Various Artist - The Alligator Records 20th Anniversary Collection disc 1
DYEAR=1991
DGENRE=Blues
TTITLE0=Hound Dog Taylor - Give Me Back My Wig
TTITLE1=James Cotton - No Cuttin' Loose
TTITLE2=Albert Collins and Johnny Copeland - Black Cat Bone
TTITLE3=Professor Longhair - Big Chief
TTITLE4=Koko Taylor - That's Why I'm Crying
TTITLE5=Tinsley Ellis - Double Eyed Whammy
TTITLE6=Lucky Peterson - I'm Free
TTITLE7=A.C. Reed with Stevie Ray Vaughan - These Blues Is Killing Me 
TTITLE8=Little Charlie and The Nightcats - Rain
TTITLE9=Kenny Neal - Look But Don't Touch
TTITLE10=Elvin Bishop - Fannie Mae
TTITLE11=Jimmy Johnson - Serves Me Right To Suffer
TTITLE12=The Siegel-Schwall Band - Leavin'
TTITLE13=Clarence 'Gatemouth' Brown - Born In Louisiana
TTITLE14=Charlie Musselwhite - Leaving Your Town
TTITLE15=Roy Buchanan - Drowning On Dry Land
TTITLE16=Detroit Junior - If I Hadn't Been High
TTITLE17=Big Walter Horton - Trouble In Mind
EXTD=
EXTT0=
EXTT1=
EXTT2=
EXTT3=
EXTT4=
EXTT5=
EXTT6=
EXTT7=
EXTT8=
EXTT9=
EXTT10=
EXTT11=
EXTT12=
EXTT13=
EXTT14=
EXTT15=
EXTT16=
EXTT17=
PLAYORDER=
